%TF.GenerationSoftware,KiCad,Pcbnew,(6.0.7)*%
%TF.CreationDate,2022-08-20T19:22:04-07:00*%
%TF.ProjectId,tpm_board,74706d5f-626f-4617-9264-2e6b69636164,rev?*%
%TF.SameCoordinates,Original*%
%TF.FileFunction,Paste,Top*%
%TF.FilePolarity,Positive*%
%FSLAX46Y46*%
G04 Gerber Fmt 4.6, Leading zero omitted, Abs format (unit mm)*
G04 Created by KiCad (PCBNEW (6.0.7)) date 2022-08-20 19:22:04*
%MOMM*%
%LPD*%
G01*
G04 APERTURE LIST*
G04 Aperture macros list*
%AMRoundRect*
0 Rectangle with rounded corners*
0 $1 Rounding radius*
0 $2 $3 $4 $5 $6 $7 $8 $9 X,Y pos of 4 corners*
0 Add a 4 corners polygon primitive as box body*
4,1,4,$2,$3,$4,$5,$6,$7,$8,$9,$2,$3,0*
0 Add four circle primitives for the rounded corners*
1,1,$1+$1,$2,$3*
1,1,$1+$1,$4,$5*
1,1,$1+$1,$6,$7*
1,1,$1+$1,$8,$9*
0 Add four rect primitives between the rounded corners*
20,1,$1+$1,$2,$3,$4,$5,0*
20,1,$1+$1,$4,$5,$6,$7,0*
20,1,$1+$1,$6,$7,$8,$9,0*
20,1,$1+$1,$8,$9,$2,$3,0*%
G04 Aperture macros list end*
%ADD10RoundRect,0.250000X-0.262500X-0.450000X0.262500X-0.450000X0.262500X0.450000X-0.262500X0.450000X0*%
%ADD11RoundRect,0.250000X-0.475000X0.250000X-0.475000X-0.250000X0.475000X-0.250000X0.475000X0.250000X0*%
%ADD12RoundRect,0.250000X0.475000X-0.250000X0.475000X0.250000X-0.475000X0.250000X-0.475000X-0.250000X0*%
%ADD13R,0.700000X0.250000*%
%ADD14R,0.250000X0.700000*%
%ADD15R,3.600000X3.600000*%
G04 APERTURE END LIST*
D10*
%TO.C,R1*%
X64259216Y-78737058D03*
X66084216Y-78737058D03*
%TD*%
D11*
%TO.C,C2*%
X59920000Y-71730000D03*
X59920000Y-73630000D03*
%TD*%
D12*
%TO.C,C1*%
X59920000Y-68550000D03*
X59920000Y-66650000D03*
%TD*%
%TO.C,C3*%
X59920000Y-78710000D03*
X59920000Y-76810000D03*
%TD*%
D13*
%TO.C,IC1*%
X65140000Y-68390000D03*
X65140000Y-68890000D03*
X65140000Y-69390000D03*
X65140000Y-69890000D03*
X65140000Y-70390000D03*
X65140000Y-70890000D03*
X65140000Y-71390000D03*
X65140000Y-71890000D03*
D14*
X65790000Y-72540000D03*
X66290000Y-72540000D03*
X66790000Y-72540000D03*
X67290000Y-72540000D03*
X67790000Y-72540000D03*
X68290000Y-72540000D03*
X68790000Y-72540000D03*
X69290000Y-72540000D03*
D13*
X69940000Y-71890000D03*
X69940000Y-71390000D03*
X69940000Y-70890000D03*
X69940000Y-70390000D03*
X69940000Y-69890000D03*
X69940000Y-69390000D03*
X69940000Y-68890000D03*
X69940000Y-68390000D03*
D14*
X69290000Y-67740000D03*
X68790000Y-67740000D03*
X68290000Y-67740000D03*
X67790000Y-67740000D03*
X67290000Y-67740000D03*
X66790000Y-67740000D03*
X66290000Y-67740000D03*
X65790000Y-67740000D03*
D15*
X67540000Y-70140000D03*
%TD*%
M02*
