%TF.GenerationSoftware,KiCad,Pcbnew,(6.0.7)*%
%TF.CreationDate,2022-08-20T19:22:04-07:00*%
%TF.ProjectId,tpm_board,74706d5f-626f-4617-9264-2e6b69636164,rev?*%
%TF.SameCoordinates,Original*%
%TF.FileFunction,Copper,L1,Top*%
%TF.FilePolarity,Positive*%
%FSLAX46Y46*%
G04 Gerber Fmt 4.6, Leading zero omitted, Abs format (unit mm)*
G04 Created by KiCad (PCBNEW (6.0.7)) date 2022-08-20 19:22:04*
%MOMM*%
%LPD*%
G01*
G04 APERTURE LIST*
G04 Aperture macros list*
%AMRoundRect*
0 Rectangle with rounded corners*
0 $1 Rounding radius*
0 $2 $3 $4 $5 $6 $7 $8 $9 X,Y pos of 4 corners*
0 Add a 4 corners polygon primitive as box body*
4,1,4,$2,$3,$4,$5,$6,$7,$8,$9,$2,$3,0*
0 Add four circle primitives for the rounded corners*
1,1,$1+$1,$2,$3*
1,1,$1+$1,$4,$5*
1,1,$1+$1,$6,$7*
1,1,$1+$1,$8,$9*
0 Add four rect primitives between the rounded corners*
20,1,$1+$1,$2,$3,$4,$5,0*
20,1,$1+$1,$4,$5,$6,$7,0*
20,1,$1+$1,$6,$7,$8,$9,0*
20,1,$1+$1,$8,$9,$2,$3,0*%
G04 Aperture macros list end*
%TA.AperFunction,SMDPad,CuDef*%
%ADD10RoundRect,0.250000X-0.262500X-0.450000X0.262500X-0.450000X0.262500X0.450000X-0.262500X0.450000X0*%
%TD*%
%TA.AperFunction,SMDPad,CuDef*%
%ADD11RoundRect,0.250000X-0.475000X0.250000X-0.475000X-0.250000X0.475000X-0.250000X0.475000X0.250000X0*%
%TD*%
%TA.AperFunction,SMDPad,CuDef*%
%ADD12RoundRect,0.250000X0.475000X-0.250000X0.475000X0.250000X-0.475000X0.250000X-0.475000X-0.250000X0*%
%TD*%
%TA.AperFunction,ComponentPad*%
%ADD13R,1.700000X1.700000*%
%TD*%
%TA.AperFunction,ComponentPad*%
%ADD14O,1.700000X1.700000*%
%TD*%
%TA.AperFunction,SMDPad,CuDef*%
%ADD15R,0.700000X0.250000*%
%TD*%
%TA.AperFunction,SMDPad,CuDef*%
%ADD16R,0.250000X0.700000*%
%TD*%
%TA.AperFunction,SMDPad,CuDef*%
%ADD17R,3.600000X3.600000*%
%TD*%
%TA.AperFunction,ViaPad*%
%ADD18C,0.800000*%
%TD*%
%TA.AperFunction,Conductor*%
%ADD19C,0.250000*%
%TD*%
G04 APERTURE END LIST*
D10*
%TO.P,R1,1*%
%TO.N,+3.3V*%
X64259216Y-78737058D03*
%TO.P,R1,2*%
%TO.N,PIRQ*%
X66084216Y-78737058D03*
%TD*%
D11*
%TO.P,C2,1*%
%TO.N,+3.3V*%
X59920000Y-71730000D03*
%TO.P,C2,2*%
%TO.N,GND*%
X59920000Y-73630000D03*
%TD*%
D12*
%TO.P,C1,1*%
%TO.N,+3.3V*%
X59920000Y-68550000D03*
%TO.P,C1,2*%
%TO.N,GND*%
X59920000Y-66650000D03*
%TD*%
%TO.P,C3,1*%
%TO.N,+3.3V*%
X59920000Y-78710000D03*
%TO.P,C3,2*%
%TO.N,GND*%
X59920000Y-76810000D03*
%TD*%
D13*
%TO.P,J1,1,Pin_1*%
%TO.N,GND*%
X77700000Y-62520000D03*
D14*
%TO.P,J1,2,Pin_2*%
%TO.N,+3.3V*%
X77700000Y-65060000D03*
%TO.P,J1,3,Pin_3*%
%TO.N,MISO*%
X77700000Y-67600000D03*
%TO.P,J1,4,Pin_4*%
%TO.N,MOSI*%
X77700000Y-70140000D03*
%TO.P,J1,5,Pin_5*%
%TO.N,CS*%
X77700000Y-72680000D03*
%TO.P,J1,6,Pin_6*%
%TO.N,SCLK*%
X77700000Y-75220000D03*
%TO.P,J1,7,Pin_7*%
%TO.N,PIRQ*%
X77700000Y-77760000D03*
%TO.P,J1,8,Pin_8*%
%TO.N,RST*%
X77700000Y-80300000D03*
%TD*%
D15*
%TO.P,IC1,1,NCI/VDD_1*%
%TO.N,unconnected-(IC1-Pad1)*%
X65140000Y-68390000D03*
%TO.P,IC1,2,GND_1*%
%TO.N,GND*%
X65140000Y-68890000D03*
%TO.P,IC1,3,NCI_1*%
%TO.N,unconnected-(IC1-Pad3)*%
X65140000Y-69390000D03*
%TO.P,IC1,4,NCI_2*%
%TO.N,unconnected-(IC1-Pad4)*%
X65140000Y-69890000D03*
%TO.P,IC1,5,NCI_3*%
%TO.N,unconnected-(IC1-Pad5)*%
X65140000Y-70390000D03*
%TO.P,IC1,6,GPIO*%
%TO.N,unconnected-(IC1-Pad6)*%
X65140000Y-70890000D03*
%TO.P,IC1,7,PP*%
%TO.N,unconnected-(IC1-Pad7)*%
X65140000Y-71390000D03*
%TO.P,IC1,8,VDD_1*%
%TO.N,+3.3V*%
X65140000Y-71890000D03*
D16*
%TO.P,IC1,9,GND_2*%
%TO.N,GND*%
X65790000Y-72540000D03*
%TO.P,IC1,10,NCI_4*%
%TO.N,unconnected-(IC1-Pad10)*%
X66290000Y-72540000D03*
%TO.P,IC1,11,NCI_5*%
%TO.N,unconnected-(IC1-Pad11)*%
X66790000Y-72540000D03*
%TO.P,IC1,12,NCI_6*%
%TO.N,unconnected-(IC1-Pad12)*%
X67290000Y-72540000D03*
%TO.P,IC1,13,NCI_7*%
%TO.N,unconnected-(IC1-Pad13)*%
X67790000Y-72540000D03*
%TO.P,IC1,14,NCI/VDD_2*%
%TO.N,unconnected-(IC1-Pad14)*%
X68290000Y-72540000D03*
%TO.P,IC1,15,NCI_8*%
%TO.N,unconnected-(IC1-Pad15)*%
X68790000Y-72540000D03*
%TO.P,IC1,16,NCI/GND*%
%TO.N,unconnected-(IC1-Pad16)*%
X69290000Y-72540000D03*
D15*
%TO.P,IC1,17,RST#*%
%TO.N,RST*%
X69940000Y-71890000D03*
%TO.P,IC1,18,PIRQ#*%
%TO.N,PIRQ*%
X69940000Y-71390000D03*
%TO.P,IC1,19,SCLK*%
%TO.N,SCLK*%
X69940000Y-70890000D03*
%TO.P,IC1,20,CS#*%
%TO.N,CS*%
X69940000Y-70390000D03*
%TO.P,IC1,21,MOSI*%
%TO.N,MOSI*%
X69940000Y-69890000D03*
%TO.P,IC1,22,VDD_2*%
%TO.N,+3.3V*%
X69940000Y-69390000D03*
%TO.P,IC1,23,GND_3*%
%TO.N,GND*%
X69940000Y-68890000D03*
%TO.P,IC1,24,MISO*%
%TO.N,MISO*%
X69940000Y-68390000D03*
D16*
%TO.P,IC1,25,NCI_9*%
%TO.N,unconnected-(IC1-Pad25)*%
X69290000Y-67740000D03*
%TO.P,IC1,26,NCI_10*%
%TO.N,unconnected-(IC1-Pad26)*%
X68790000Y-67740000D03*
%TO.P,IC1,27,NCI_11*%
%TO.N,unconnected-(IC1-Pad27)*%
X68290000Y-67740000D03*
%TO.P,IC1,28,NCI_12*%
%TO.N,unconnected-(IC1-Pad28)*%
X67790000Y-67740000D03*
%TO.P,IC1,29,NC_1*%
%TO.N,unconnected-(IC1-Pad29)*%
X67290000Y-67740000D03*
%TO.P,IC1,30,NC_2*%
%TO.N,unconnected-(IC1-Pad30)*%
X66790000Y-67740000D03*
%TO.P,IC1,31,NCI_13*%
%TO.N,unconnected-(IC1-Pad31)*%
X66290000Y-67740000D03*
%TO.P,IC1,32,GND_4*%
%TO.N,GND*%
X65790000Y-67740000D03*
D17*
%TO.P,IC1,33,EP*%
X67540000Y-70140000D03*
%TD*%
D18*
%TO.N,+3.3V*%
X64247839Y-75705490D03*
X62400000Y-69975000D03*
X73175000Y-69169975D03*
%TO.N,GND*%
X65750000Y-65950000D03*
X62800000Y-68675000D03*
X62775000Y-73675000D03*
X72125000Y-68375000D03*
X67600000Y-70075000D03*
%TO.N,PIRQ*%
X73280940Y-78731775D03*
%TD*%
D19*
%TO.N,GND*%
X60775000Y-66650000D02*
X62800000Y-68675000D01*
X59920000Y-66650000D02*
X60775000Y-66650000D01*
X63015000Y-68890000D02*
X62800000Y-68675000D01*
X65140000Y-68890000D02*
X63015000Y-68890000D01*
X62730000Y-73630000D02*
X62775000Y-73675000D01*
X59920000Y-73630000D02*
X62730000Y-73630000D01*
X62800000Y-73650000D02*
X62775000Y-73675000D01*
X65432359Y-73650000D02*
X62800000Y-73650000D01*
%TO.N,+3.3V*%
X72954975Y-69390000D02*
X73175000Y-69169975D01*
X60080000Y-71890000D02*
X59920000Y-71730000D01*
X69940000Y-69390000D02*
X72954975Y-69390000D01*
X64247839Y-78725681D02*
X64259216Y-78737058D01*
X64247839Y-75705490D02*
X64247839Y-78725681D01*
X62400000Y-69975000D02*
X61345000Y-69975000D01*
X61345000Y-69975000D02*
X59920000Y-68550000D01*
X59947058Y-78737058D02*
X64259216Y-78737058D01*
X65140000Y-71890000D02*
X60080000Y-71890000D01*
X59920000Y-68550000D02*
X59920000Y-71730000D01*
%TO.N,GND*%
X59920000Y-73630000D02*
X59920000Y-76810000D01*
X65790000Y-73292359D02*
X65790000Y-72540000D01*
X69940000Y-68890000D02*
X71835000Y-68890000D01*
X71835000Y-68890000D02*
X72350000Y-68375000D01*
X65790000Y-67740000D02*
X65790000Y-65990000D01*
X65790000Y-65990000D02*
X65750000Y-65950000D01*
X65432359Y-73650000D02*
X65790000Y-73292359D01*
%TO.N,PIRQ*%
X69940000Y-71390000D02*
X71330000Y-71390000D01*
X71330000Y-71390000D02*
X77700000Y-77760000D01*
X73280940Y-78731775D02*
X66089499Y-78731775D01*
%TO.N,RST*%
X69940000Y-71890000D02*
X70690000Y-71890000D01*
X70690000Y-71890000D02*
X75360000Y-76560000D01*
X75360000Y-77960000D02*
X77700000Y-80300000D01*
X75360000Y-76560000D02*
X75360000Y-77960000D01*
%TO.N,SCLK*%
X69940000Y-70890000D02*
X73370000Y-70890000D01*
X73370000Y-70890000D02*
X77700000Y-75220000D01*
%TO.N,CS*%
X77700000Y-72680000D02*
X75410000Y-70390000D01*
X75410000Y-70390000D02*
X69940000Y-70390000D01*
%TO.N,MOSI*%
X77450000Y-69894475D02*
X69940000Y-69894475D01*
X77700000Y-70140000D02*
X77450000Y-69890000D01*
%TO.N,MISO*%
X70575000Y-68375000D02*
X70950000Y-68375000D01*
X71725000Y-67600000D02*
X77700000Y-67600000D01*
X69940000Y-68390000D02*
X70560000Y-68390000D01*
X70560000Y-68390000D02*
X70575000Y-68375000D01*
X70950000Y-68375000D02*
X71725000Y-67600000D01*
%TD*%
M02*
