%TF.GenerationSoftware,KiCad,Pcbnew,(6.0.7)*%
%TF.CreationDate,2022-08-20T19:22:04-07:00*%
%TF.ProjectId,tpm_board,74706d5f-626f-4617-9264-2e6b69636164,rev?*%
%TF.SameCoordinates,Original*%
%TF.FileFunction,Copper,L2,Bot*%
%TF.FilePolarity,Positive*%
%FSLAX46Y46*%
G04 Gerber Fmt 4.6, Leading zero omitted, Abs format (unit mm)*
G04 Created by KiCad (PCBNEW (6.0.7)) date 2022-08-20 19:22:04*
%MOMM*%
%LPD*%
G01*
G04 APERTURE LIST*
%TA.AperFunction,ComponentPad*%
%ADD10R,1.700000X1.700000*%
%TD*%
%TA.AperFunction,ComponentPad*%
%ADD11O,1.700000X1.700000*%
%TD*%
%TA.AperFunction,ViaPad*%
%ADD12C,0.800000*%
%TD*%
%TA.AperFunction,Conductor*%
%ADD13C,0.250000*%
%TD*%
G04 APERTURE END LIST*
D10*
%TO.P,J1,1,Pin_1*%
%TO.N,GND*%
X77700000Y-62520000D03*
D11*
%TO.P,J1,2,Pin_2*%
%TO.N,+3.3V*%
X77700000Y-65060000D03*
%TO.P,J1,3,Pin_3*%
%TO.N,MISO*%
X77700000Y-67600000D03*
%TO.P,J1,4,Pin_4*%
%TO.N,MOSI*%
X77700000Y-70140000D03*
%TO.P,J1,5,Pin_5*%
%TO.N,CS*%
X77700000Y-72680000D03*
%TO.P,J1,6,Pin_6*%
%TO.N,SCLK*%
X77700000Y-75220000D03*
%TO.P,J1,7,Pin_7*%
%TO.N,PIRQ*%
X77700000Y-77760000D03*
%TO.P,J1,8,Pin_8*%
%TO.N,RST*%
X77700000Y-80300000D03*
%TD*%
D12*
%TO.N,+3.3V*%
X64247839Y-75705490D03*
X62400000Y-69975000D03*
X73175000Y-69169975D03*
%TO.N,GND*%
X65750000Y-65950000D03*
X62800000Y-68675000D03*
X62775000Y-73675000D03*
X72125000Y-68375000D03*
X67600000Y-70075000D03*
%TO.N,PIRQ*%
X73280940Y-78731775D03*
%TD*%
D13*
%TO.N,+3.3V*%
X73175000Y-69169975D02*
X73590025Y-69169975D01*
X61550000Y-73950305D02*
X61550000Y-70825000D01*
X64247839Y-75705490D02*
X63305185Y-75705490D01*
X73590025Y-69169975D02*
X77700000Y-65060000D01*
X73590025Y-69169975D02*
X73590025Y-70634975D01*
X63305185Y-75705490D02*
X61550000Y-73950305D01*
X61550000Y-70825000D02*
X62400000Y-69975000D01*
X68519510Y-75705490D02*
X64247839Y-75705490D01*
X73590025Y-70634975D02*
X68519510Y-75705490D01*
%TO.N,PIRQ*%
X76728225Y-78731775D02*
X73280940Y-78731775D01*
X77700000Y-77760000D02*
X76728225Y-78731775D01*
%TD*%
%TA.AperFunction,Conductor*%
%TO.N,GND*%
G36*
X76586089Y-61020502D02*
G01*
X76632582Y-61074158D01*
X76642686Y-61144432D01*
X76613192Y-61209012D01*
X76593533Y-61227326D01*
X76494276Y-61301715D01*
X76481715Y-61314276D01*
X76405214Y-61416351D01*
X76396676Y-61431946D01*
X76351522Y-61552394D01*
X76347895Y-61567649D01*
X76342369Y-61618514D01*
X76342000Y-61625328D01*
X76342000Y-62247885D01*
X76346475Y-62263124D01*
X76347865Y-62264329D01*
X76355548Y-62266000D01*
X77828000Y-62266000D01*
X77896121Y-62286002D01*
X77942614Y-62339658D01*
X77954000Y-62392000D01*
X77954000Y-62648000D01*
X77933998Y-62716121D01*
X77880342Y-62762614D01*
X77828000Y-62774000D01*
X76360116Y-62774000D01*
X76344877Y-62778475D01*
X76343672Y-62779865D01*
X76342001Y-62787548D01*
X76342001Y-63414669D01*
X76342371Y-63421490D01*
X76347895Y-63472352D01*
X76351521Y-63487604D01*
X76396676Y-63608054D01*
X76405214Y-63623649D01*
X76481715Y-63725724D01*
X76494276Y-63738285D01*
X76596351Y-63814786D01*
X76611946Y-63823324D01*
X76720827Y-63864142D01*
X76777591Y-63906784D01*
X76802291Y-63973345D01*
X76787083Y-64042694D01*
X76767691Y-64069175D01*
X76644200Y-64198401D01*
X76640629Y-64202138D01*
X76514743Y-64386680D01*
X76420688Y-64589305D01*
X76360989Y-64804570D01*
X76337251Y-65026695D01*
X76350110Y-65249715D01*
X76351247Y-65254761D01*
X76351248Y-65254767D01*
X76383453Y-65397668D01*
X76378917Y-65468520D01*
X76349631Y-65514464D01*
X73591061Y-68273034D01*
X73528749Y-68307060D01*
X73463117Y-68303776D01*
X73457288Y-68301181D01*
X73450836Y-68299809D01*
X73450831Y-68299808D01*
X73276944Y-68262847D01*
X73276939Y-68262847D01*
X73270487Y-68261475D01*
X73079513Y-68261475D01*
X73073061Y-68262847D01*
X73073056Y-68262847D01*
X72986112Y-68281328D01*
X72892712Y-68301181D01*
X72886682Y-68303866D01*
X72886681Y-68303866D01*
X72724278Y-68376172D01*
X72724276Y-68376173D01*
X72718248Y-68378857D01*
X72563747Y-68491109D01*
X72559326Y-68496019D01*
X72559325Y-68496020D01*
X72489168Y-68573938D01*
X72435960Y-68633031D01*
X72340473Y-68798419D01*
X72281458Y-68980047D01*
X72280768Y-68986608D01*
X72280768Y-68986610D01*
X72268198Y-69106206D01*
X72261496Y-69169975D01*
X72262186Y-69176540D01*
X72274348Y-69292251D01*
X72281458Y-69359903D01*
X72340473Y-69541531D01*
X72435960Y-69706919D01*
X72440378Y-69711826D01*
X72440379Y-69711827D01*
X72559325Y-69843930D01*
X72563747Y-69848841D01*
X72718248Y-69961093D01*
X72724276Y-69963777D01*
X72724278Y-69963778D01*
X72881774Y-70033899D01*
X72935869Y-70079879D01*
X72956525Y-70149006D01*
X72956525Y-70320381D01*
X72936523Y-70388502D01*
X72919620Y-70409476D01*
X68294010Y-75035085D01*
X68231698Y-75069111D01*
X68204915Y-75071990D01*
X64956039Y-75071990D01*
X64887918Y-75051988D01*
X64868692Y-75035647D01*
X64868419Y-75035950D01*
X64863507Y-75031527D01*
X64859092Y-75026624D01*
X64704591Y-74914372D01*
X64698563Y-74911688D01*
X64698561Y-74911687D01*
X64536158Y-74839381D01*
X64536157Y-74839381D01*
X64530127Y-74836696D01*
X64436557Y-74816807D01*
X64349783Y-74798362D01*
X64349778Y-74798362D01*
X64343326Y-74796990D01*
X64152352Y-74796990D01*
X64145900Y-74798362D01*
X64145895Y-74798362D01*
X64059121Y-74816807D01*
X63965551Y-74836696D01*
X63959521Y-74839381D01*
X63959520Y-74839381D01*
X63797117Y-74911687D01*
X63797115Y-74911688D01*
X63791087Y-74914372D01*
X63657408Y-75011496D01*
X63590543Y-75035353D01*
X63521391Y-75019273D01*
X63494254Y-74998654D01*
X62220405Y-73724805D01*
X62186379Y-73662493D01*
X62183500Y-73635710D01*
X62183500Y-71139594D01*
X62203502Y-71071473D01*
X62220405Y-71050499D01*
X62350499Y-70920405D01*
X62412811Y-70886379D01*
X62439594Y-70883500D01*
X62495487Y-70883500D01*
X62501939Y-70882128D01*
X62501944Y-70882128D01*
X62602192Y-70860819D01*
X62682288Y-70843794D01*
X62688319Y-70841109D01*
X62850722Y-70768803D01*
X62850724Y-70768802D01*
X62856752Y-70766118D01*
X62874947Y-70752899D01*
X62960798Y-70690524D01*
X63011253Y-70653866D01*
X63049837Y-70611014D01*
X63134621Y-70516852D01*
X63134622Y-70516851D01*
X63139040Y-70511944D01*
X63212863Y-70384079D01*
X63231223Y-70352279D01*
X63231224Y-70352278D01*
X63234527Y-70346556D01*
X63293542Y-70164928D01*
X63295216Y-70149006D01*
X63312814Y-69981565D01*
X63313504Y-69975000D01*
X63310907Y-69950292D01*
X63294232Y-69791635D01*
X63294232Y-69791633D01*
X63293542Y-69785072D01*
X63234527Y-69603444D01*
X63139040Y-69438056D01*
X63133929Y-69432379D01*
X63015675Y-69301045D01*
X63015674Y-69301044D01*
X63011253Y-69296134D01*
X62856752Y-69183882D01*
X62850724Y-69181198D01*
X62850722Y-69181197D01*
X62688319Y-69108891D01*
X62688318Y-69108891D01*
X62682288Y-69106206D01*
X62588887Y-69086353D01*
X62501944Y-69067872D01*
X62501939Y-69067872D01*
X62495487Y-69066500D01*
X62304513Y-69066500D01*
X62298061Y-69067872D01*
X62298056Y-69067872D01*
X62211113Y-69086353D01*
X62117712Y-69106206D01*
X62111682Y-69108891D01*
X62111681Y-69108891D01*
X61949278Y-69181197D01*
X61949276Y-69181198D01*
X61943248Y-69183882D01*
X61788747Y-69296134D01*
X61784326Y-69301044D01*
X61784325Y-69301045D01*
X61666072Y-69432379D01*
X61660960Y-69438056D01*
X61565473Y-69603444D01*
X61506458Y-69785072D01*
X61505768Y-69791633D01*
X61505768Y-69791635D01*
X61489093Y-69950292D01*
X61462080Y-70015949D01*
X61452879Y-70026217D01*
X61202085Y-70277010D01*
X61157742Y-70321353D01*
X61149463Y-70328887D01*
X61142982Y-70333000D01*
X61124878Y-70352279D01*
X61096357Y-70382651D01*
X61093602Y-70385493D01*
X61073865Y-70405230D01*
X61071385Y-70408427D01*
X61063682Y-70417447D01*
X61033414Y-70449679D01*
X61029595Y-70456625D01*
X61029593Y-70456628D01*
X61023652Y-70467434D01*
X61012801Y-70483953D01*
X61000386Y-70499959D01*
X60997241Y-70507228D01*
X60997238Y-70507232D01*
X60982826Y-70540537D01*
X60977609Y-70551187D01*
X60956305Y-70589940D01*
X60954334Y-70597615D01*
X60954334Y-70597616D01*
X60951267Y-70609562D01*
X60944863Y-70628266D01*
X60936819Y-70646855D01*
X60935580Y-70654678D01*
X60935577Y-70654688D01*
X60929901Y-70690524D01*
X60927495Y-70702144D01*
X60916500Y-70744970D01*
X60916500Y-70765224D01*
X60914949Y-70784934D01*
X60911780Y-70804943D01*
X60912526Y-70812835D01*
X60915941Y-70848961D01*
X60916500Y-70860819D01*
X60916500Y-73871538D01*
X60915973Y-73882721D01*
X60914298Y-73890214D01*
X60914547Y-73898140D01*
X60914547Y-73898141D01*
X60916438Y-73958291D01*
X60916500Y-73962250D01*
X60916500Y-73990161D01*
X60916997Y-73994095D01*
X60916997Y-73994096D01*
X60917005Y-73994161D01*
X60917938Y-74005998D01*
X60919327Y-74050194D01*
X60924978Y-74069644D01*
X60928987Y-74089005D01*
X60931526Y-74109102D01*
X60934445Y-74116473D01*
X60934445Y-74116475D01*
X60947804Y-74150217D01*
X60951649Y-74161447D01*
X60963982Y-74203898D01*
X60968015Y-74210717D01*
X60968017Y-74210722D01*
X60974293Y-74221333D01*
X60982988Y-74239081D01*
X60990448Y-74257922D01*
X60995110Y-74264338D01*
X60995110Y-74264339D01*
X61016436Y-74293692D01*
X61022952Y-74303612D01*
X61045458Y-74341667D01*
X61059779Y-74355988D01*
X61072619Y-74371021D01*
X61084528Y-74387412D01*
X61090634Y-74392463D01*
X61118605Y-74415603D01*
X61127384Y-74423593D01*
X62801528Y-76097737D01*
X62809072Y-76106027D01*
X62813185Y-76112508D01*
X62818962Y-76117933D01*
X62862852Y-76159148D01*
X62865694Y-76161903D01*
X62885415Y-76181624D01*
X62888610Y-76184102D01*
X62897632Y-76191808D01*
X62929864Y-76222076D01*
X62936813Y-76225896D01*
X62947617Y-76231836D01*
X62964141Y-76242689D01*
X62980144Y-76255103D01*
X63020728Y-76272666D01*
X63031358Y-76277873D01*
X63070125Y-76299185D01*
X63077802Y-76301156D01*
X63077807Y-76301158D01*
X63089743Y-76304222D01*
X63108451Y-76310627D01*
X63127040Y-76318671D01*
X63134865Y-76319910D01*
X63134867Y-76319911D01*
X63170704Y-76325587D01*
X63182325Y-76327994D01*
X63214144Y-76336163D01*
X63225155Y-76338990D01*
X63245416Y-76338990D01*
X63265125Y-76340541D01*
X63285128Y-76343709D01*
X63293020Y-76342963D01*
X63298247Y-76342469D01*
X63329139Y-76339549D01*
X63340996Y-76338990D01*
X63539639Y-76338990D01*
X63607760Y-76358992D01*
X63626986Y-76375333D01*
X63627259Y-76375030D01*
X63632171Y-76379453D01*
X63636586Y-76384356D01*
X63641925Y-76388235D01*
X63780814Y-76489144D01*
X63791087Y-76496608D01*
X63797115Y-76499292D01*
X63797117Y-76499293D01*
X63948447Y-76566669D01*
X63965551Y-76574284D01*
X64058951Y-76594137D01*
X64145895Y-76612618D01*
X64145900Y-76612618D01*
X64152352Y-76613990D01*
X64343326Y-76613990D01*
X64349778Y-76612618D01*
X64349783Y-76612618D01*
X64436727Y-76594137D01*
X64530127Y-76574284D01*
X64547231Y-76566669D01*
X64698561Y-76499293D01*
X64698563Y-76499292D01*
X64704591Y-76496608D01*
X64714865Y-76489144D01*
X64853753Y-76388235D01*
X64859092Y-76384356D01*
X64863507Y-76379453D01*
X64868419Y-76375030D01*
X64869544Y-76376279D01*
X64922853Y-76343439D01*
X64956039Y-76338990D01*
X68440743Y-76338990D01*
X68451926Y-76339517D01*
X68459419Y-76341192D01*
X68467345Y-76340943D01*
X68467346Y-76340943D01*
X68527496Y-76339052D01*
X68531455Y-76338990D01*
X68559366Y-76338990D01*
X68563301Y-76338493D01*
X68563366Y-76338485D01*
X68575203Y-76337552D01*
X68607461Y-76336538D01*
X68611480Y-76336412D01*
X68619399Y-76336163D01*
X68638853Y-76330511D01*
X68658210Y-76326503D01*
X68670440Y-76324958D01*
X68670441Y-76324958D01*
X68678307Y-76323964D01*
X68685678Y-76321045D01*
X68685680Y-76321045D01*
X68719422Y-76307686D01*
X68730652Y-76303841D01*
X68765493Y-76293719D01*
X68765494Y-76293719D01*
X68773103Y-76291508D01*
X68779922Y-76287475D01*
X68779927Y-76287473D01*
X68790538Y-76281197D01*
X68808286Y-76272502D01*
X68827127Y-76265042D01*
X68847497Y-76250243D01*
X68862897Y-76239054D01*
X68872817Y-76232538D01*
X68904045Y-76214070D01*
X68904048Y-76214068D01*
X68910872Y-76210032D01*
X68925193Y-76195711D01*
X68940227Y-76182870D01*
X68941942Y-76181624D01*
X68956617Y-76170962D01*
X68984808Y-76136885D01*
X68992798Y-76128106D01*
X73982278Y-71138627D01*
X73990564Y-71131087D01*
X73997043Y-71126975D01*
X74009286Y-71113938D01*
X74043668Y-71077324D01*
X74046423Y-71074482D01*
X74066160Y-71054745D01*
X74068640Y-71051548D01*
X74076345Y-71042526D01*
X74101184Y-71016075D01*
X74106611Y-71010296D01*
X74110430Y-71003350D01*
X74110432Y-71003347D01*
X74116373Y-70992541D01*
X74127224Y-70976022D01*
X74134783Y-70966276D01*
X74139639Y-70960016D01*
X74142784Y-70952747D01*
X74142787Y-70952743D01*
X74157199Y-70919438D01*
X74162416Y-70908788D01*
X74183720Y-70870035D01*
X74188758Y-70850412D01*
X74195162Y-70831709D01*
X74200058Y-70820395D01*
X74200058Y-70820394D01*
X74203206Y-70813120D01*
X74204445Y-70805297D01*
X74204448Y-70805287D01*
X74210124Y-70769451D01*
X74212530Y-70757831D01*
X74221553Y-70722686D01*
X74221553Y-70722685D01*
X74223525Y-70715005D01*
X74223525Y-70694751D01*
X74225076Y-70675040D01*
X74227005Y-70662861D01*
X74228245Y-70655032D01*
X74224084Y-70611013D01*
X74223525Y-70599156D01*
X74223525Y-69484569D01*
X74243527Y-69416448D01*
X74260430Y-69395474D01*
X76125019Y-67530885D01*
X76187331Y-67496859D01*
X76258146Y-67501924D01*
X76314982Y-67544471D01*
X76339905Y-67612727D01*
X76350110Y-67789715D01*
X76351247Y-67794761D01*
X76351248Y-67794767D01*
X76375304Y-67901508D01*
X76399222Y-68007639D01*
X76483266Y-68214616D01*
X76534942Y-68298944D01*
X76583913Y-68378857D01*
X76599987Y-68405088D01*
X76746250Y-68573938D01*
X76918126Y-68716632D01*
X76988595Y-68757811D01*
X76991445Y-68759476D01*
X77040169Y-68811114D01*
X77053240Y-68880897D01*
X77026509Y-68946669D01*
X76986055Y-68980027D01*
X76973607Y-68986507D01*
X76969474Y-68989610D01*
X76969471Y-68989612D01*
X76799100Y-69117530D01*
X76794965Y-69120635D01*
X76640629Y-69282138D01*
X76637715Y-69286410D01*
X76637714Y-69286411D01*
X76623057Y-69307898D01*
X76514743Y-69466680D01*
X76477342Y-69547254D01*
X76451260Y-69603444D01*
X76420688Y-69669305D01*
X76360989Y-69884570D01*
X76337251Y-70106695D01*
X76337548Y-70111848D01*
X76337548Y-70111851D01*
X76349572Y-70320381D01*
X76350110Y-70329715D01*
X76351247Y-70334761D01*
X76351248Y-70334767D01*
X76362680Y-70385493D01*
X76399222Y-70547639D01*
X76483266Y-70754616D01*
X76534942Y-70838944D01*
X76584269Y-70919438D01*
X76599987Y-70945088D01*
X76746250Y-71113938D01*
X76918126Y-71256632D01*
X76988595Y-71297811D01*
X76991445Y-71299476D01*
X77040169Y-71351114D01*
X77053240Y-71420897D01*
X77026509Y-71486669D01*
X76986055Y-71520027D01*
X76973607Y-71526507D01*
X76969474Y-71529610D01*
X76969471Y-71529612D01*
X76945247Y-71547800D01*
X76794965Y-71660635D01*
X76640629Y-71822138D01*
X76514743Y-72006680D01*
X76420688Y-72209305D01*
X76360989Y-72424570D01*
X76337251Y-72646695D01*
X76350110Y-72869715D01*
X76351247Y-72874761D01*
X76351248Y-72874767D01*
X76375304Y-72981508D01*
X76399222Y-73087639D01*
X76483266Y-73294616D01*
X76599987Y-73485088D01*
X76746250Y-73653938D01*
X76918126Y-73796632D01*
X76988595Y-73837811D01*
X76991445Y-73839476D01*
X77040169Y-73891114D01*
X77053240Y-73960897D01*
X77026509Y-74026669D01*
X76986055Y-74060027D01*
X76973607Y-74066507D01*
X76969474Y-74069610D01*
X76969471Y-74069612D01*
X76799100Y-74197530D01*
X76794965Y-74200635D01*
X76791393Y-74204373D01*
X76654830Y-74347278D01*
X76640629Y-74362138D01*
X76514743Y-74546680D01*
X76420688Y-74749305D01*
X76360989Y-74964570D01*
X76337251Y-75186695D01*
X76350110Y-75409715D01*
X76351247Y-75414761D01*
X76351248Y-75414767D01*
X76375304Y-75521508D01*
X76399222Y-75627639D01*
X76483266Y-75834616D01*
X76599987Y-76025088D01*
X76746250Y-76193938D01*
X76835409Y-76267959D01*
X76905926Y-76326503D01*
X76918126Y-76336632D01*
X76929775Y-76343439D01*
X76991445Y-76379476D01*
X77040169Y-76431114D01*
X77053240Y-76500897D01*
X77026509Y-76566669D01*
X76986055Y-76600027D01*
X76973607Y-76606507D01*
X76969474Y-76609610D01*
X76969471Y-76609612D01*
X76945247Y-76627800D01*
X76794965Y-76740635D01*
X76640629Y-76902138D01*
X76514743Y-77086680D01*
X76420688Y-77289305D01*
X76360989Y-77504570D01*
X76337251Y-77726695D01*
X76337548Y-77731848D01*
X76337548Y-77731851D01*
X76349812Y-77944538D01*
X76350110Y-77949715D01*
X76351243Y-77954745D01*
X76340916Y-78024983D01*
X76294252Y-78078490D01*
X76226470Y-78098275D01*
X73989140Y-78098275D01*
X73921019Y-78078273D01*
X73901793Y-78061932D01*
X73901520Y-78062235D01*
X73896608Y-78057812D01*
X73892193Y-78052909D01*
X73750159Y-77949715D01*
X73743034Y-77944538D01*
X73743033Y-77944537D01*
X73737692Y-77940657D01*
X73731664Y-77937973D01*
X73731662Y-77937972D01*
X73569259Y-77865666D01*
X73569258Y-77865666D01*
X73563228Y-77862981D01*
X73469828Y-77843128D01*
X73382884Y-77824647D01*
X73382879Y-77824647D01*
X73376427Y-77823275D01*
X73185453Y-77823275D01*
X73179001Y-77824647D01*
X73178996Y-77824647D01*
X73092052Y-77843128D01*
X72998652Y-77862981D01*
X72992622Y-77865666D01*
X72992621Y-77865666D01*
X72830218Y-77937972D01*
X72830216Y-77937973D01*
X72824188Y-77940657D01*
X72818847Y-77944537D01*
X72818846Y-77944538D01*
X72811721Y-77949715D01*
X72669687Y-78052909D01*
X72541900Y-78194831D01*
X72446413Y-78360219D01*
X72387398Y-78541847D01*
X72367436Y-78731775D01*
X72387398Y-78921703D01*
X72446413Y-79103331D01*
X72541900Y-79268719D01*
X72546318Y-79273626D01*
X72546319Y-79273627D01*
X72630822Y-79367477D01*
X72669687Y-79410641D01*
X72713039Y-79442138D01*
X72804480Y-79508574D01*
X72824188Y-79522893D01*
X72830216Y-79525577D01*
X72830218Y-79525578D01*
X72992621Y-79597884D01*
X72998652Y-79600569D01*
X73092052Y-79620422D01*
X73178996Y-79638903D01*
X73179001Y-79638903D01*
X73185453Y-79640275D01*
X73376427Y-79640275D01*
X73382879Y-79638903D01*
X73382884Y-79638903D01*
X73469828Y-79620422D01*
X73563228Y-79600569D01*
X73569259Y-79597884D01*
X73731662Y-79525578D01*
X73731664Y-79525577D01*
X73737692Y-79522893D01*
X73757401Y-79508574D01*
X73870611Y-79426321D01*
X73892193Y-79410641D01*
X73896608Y-79405738D01*
X73901520Y-79401315D01*
X73902645Y-79402564D01*
X73955954Y-79369724D01*
X73989140Y-79365275D01*
X76454586Y-79365275D01*
X76522707Y-79385277D01*
X76569200Y-79438933D01*
X76579304Y-79509207D01*
X76558676Y-79562277D01*
X76514743Y-79626680D01*
X76420688Y-79829305D01*
X76360989Y-80044570D01*
X76337251Y-80266695D01*
X76350110Y-80489715D01*
X76351247Y-80494761D01*
X76351248Y-80494767D01*
X76375304Y-80601508D01*
X76399222Y-80707639D01*
X76483266Y-80914616D01*
X76599987Y-81105088D01*
X76746250Y-81273938D01*
X76918126Y-81416632D01*
X77111000Y-81529338D01*
X77319692Y-81609030D01*
X77324760Y-81610061D01*
X77324763Y-81610062D01*
X77432017Y-81631883D01*
X77538597Y-81653567D01*
X77543772Y-81653757D01*
X77543774Y-81653757D01*
X77756673Y-81661564D01*
X77756677Y-81661564D01*
X77761837Y-81661753D01*
X77766957Y-81661097D01*
X77766959Y-81661097D01*
X77978288Y-81634025D01*
X77978289Y-81634025D01*
X77983416Y-81633368D01*
X77988366Y-81631883D01*
X78192429Y-81570661D01*
X78192434Y-81570659D01*
X78197384Y-81569174D01*
X78397994Y-81470896D01*
X78579860Y-81341173D01*
X78738096Y-81183489D01*
X78741110Y-81179295D01*
X78741119Y-81179284D01*
X78771178Y-81137452D01*
X78827172Y-81093804D01*
X78897876Y-81087358D01*
X78960840Y-81120161D01*
X78996074Y-81181797D01*
X78999500Y-81210978D01*
X78999500Y-83873500D01*
X78979498Y-83941621D01*
X78925842Y-83988114D01*
X78873500Y-83999500D01*
X56126500Y-83999500D01*
X56058379Y-83979498D01*
X56011886Y-83925842D01*
X56000500Y-83873500D01*
X56000500Y-61126500D01*
X56020502Y-61058379D01*
X56074158Y-61011886D01*
X56126500Y-61000500D01*
X76517968Y-61000500D01*
X76586089Y-61020502D01*
G37*
%TD.AperFunction*%
%TD*%
M02*
