%TF.GenerationSoftware,KiCad,Pcbnew,(6.0.7)*%
%TF.CreationDate,2022-08-20T19:22:04-07:00*%
%TF.ProjectId,tpm_board,74706d5f-626f-4617-9264-2e6b69636164,rev?*%
%TF.SameCoordinates,Original*%
%TF.FileFunction,Legend,Top*%
%TF.FilePolarity,Positive*%
%FSLAX46Y46*%
G04 Gerber Fmt 4.6, Leading zero omitted, Abs format (unit mm)*
G04 Created by KiCad (PCBNEW (6.0.7)) date 2022-08-20 19:22:04*
%MOMM*%
%LPD*%
G01*
G04 APERTURE LIST*
G04 Aperture macros list*
%AMRoundRect*
0 Rectangle with rounded corners*
0 $1 Rounding radius*
0 $2 $3 $4 $5 $6 $7 $8 $9 X,Y pos of 4 corners*
0 Add a 4 corners polygon primitive as box body*
4,1,4,$2,$3,$4,$5,$6,$7,$8,$9,$2,$3,0*
0 Add four circle primitives for the rounded corners*
1,1,$1+$1,$2,$3*
1,1,$1+$1,$4,$5*
1,1,$1+$1,$6,$7*
1,1,$1+$1,$8,$9*
0 Add four rect primitives between the rounded corners*
20,1,$1+$1,$2,$3,$4,$5,0*
20,1,$1+$1,$4,$5,$6,$7,0*
20,1,$1+$1,$6,$7,$8,$9,0*
20,1,$1+$1,$8,$9,$2,$3,0*%
G04 Aperture macros list end*
%ADD10C,0.200000*%
%ADD11C,0.150000*%
%ADD12C,0.254000*%
%ADD13C,0.120000*%
%ADD14C,0.100000*%
%ADD15RoundRect,0.250000X-0.262500X-0.450000X0.262500X-0.450000X0.262500X0.450000X-0.262500X0.450000X0*%
%ADD16RoundRect,0.250000X-0.475000X0.250000X-0.475000X-0.250000X0.475000X-0.250000X0.475000X0.250000X0*%
%ADD17RoundRect,0.250000X0.475000X-0.250000X0.475000X0.250000X-0.475000X0.250000X-0.475000X-0.250000X0*%
%ADD18R,1.700000X1.700000*%
%ADD19O,1.700000X1.700000*%
%ADD20R,0.700000X0.250000*%
%ADD21R,0.250000X0.700000*%
%ADD22R,3.600000X3.600000*%
G04 APERTURE END LIST*
D10*
X56489285Y-62667857D02*
X57175000Y-62667857D01*
X56832142Y-63867857D02*
X56832142Y-62667857D01*
X57575000Y-63067857D02*
X57575000Y-64267857D01*
X57575000Y-63125000D02*
X57689285Y-63067857D01*
X57917857Y-63067857D01*
X58032142Y-63125000D01*
X58089285Y-63182142D01*
X58146428Y-63296428D01*
X58146428Y-63639285D01*
X58089285Y-63753571D01*
X58032142Y-63810714D01*
X57917857Y-63867857D01*
X57689285Y-63867857D01*
X57575000Y-63810714D01*
X58660714Y-63867857D02*
X58660714Y-63067857D01*
X58660714Y-63182142D02*
X58717857Y-63125000D01*
X58832142Y-63067857D01*
X59003571Y-63067857D01*
X59117857Y-63125000D01*
X59175000Y-63239285D01*
X59175000Y-63867857D01*
X59175000Y-63239285D02*
X59232142Y-63125000D01*
X59346428Y-63067857D01*
X59517857Y-63067857D01*
X59632142Y-63125000D01*
X59689285Y-63239285D01*
X59689285Y-63867857D01*
X61575000Y-63239285D02*
X61746428Y-63296428D01*
X61803571Y-63353571D01*
X61860714Y-63467857D01*
X61860714Y-63639285D01*
X61803571Y-63753571D01*
X61746428Y-63810714D01*
X61632142Y-63867857D01*
X61175000Y-63867857D01*
X61175000Y-62667857D01*
X61575000Y-62667857D01*
X61689285Y-62725000D01*
X61746428Y-62782142D01*
X61803571Y-62896428D01*
X61803571Y-63010714D01*
X61746428Y-63125000D01*
X61689285Y-63182142D01*
X61575000Y-63239285D01*
X61175000Y-63239285D01*
X62546428Y-63867857D02*
X62432142Y-63810714D01*
X62375000Y-63753571D01*
X62317857Y-63639285D01*
X62317857Y-63296428D01*
X62375000Y-63182142D01*
X62432142Y-63125000D01*
X62546428Y-63067857D01*
X62717857Y-63067857D01*
X62832142Y-63125000D01*
X62889285Y-63182142D01*
X62946428Y-63296428D01*
X62946428Y-63639285D01*
X62889285Y-63753571D01*
X62832142Y-63810714D01*
X62717857Y-63867857D01*
X62546428Y-63867857D01*
X63975000Y-63867857D02*
X63975000Y-63239285D01*
X63917857Y-63125000D01*
X63803571Y-63067857D01*
X63575000Y-63067857D01*
X63460714Y-63125000D01*
X63975000Y-63810714D02*
X63860714Y-63867857D01*
X63575000Y-63867857D01*
X63460714Y-63810714D01*
X63403571Y-63696428D01*
X63403571Y-63582142D01*
X63460714Y-63467857D01*
X63575000Y-63410714D01*
X63860714Y-63410714D01*
X63975000Y-63353571D01*
X64546428Y-63867857D02*
X64546428Y-63067857D01*
X64546428Y-63296428D02*
X64603571Y-63182142D01*
X64660714Y-63125000D01*
X64775000Y-63067857D01*
X64889285Y-63067857D01*
X65803571Y-63867857D02*
X65803571Y-62667857D01*
X65803571Y-63810714D02*
X65689285Y-63867857D01*
X65460714Y-63867857D01*
X65346428Y-63810714D01*
X65289285Y-63753571D01*
X65232142Y-63639285D01*
X65232142Y-63296428D01*
X65289285Y-63182142D01*
X65346428Y-63125000D01*
X65460714Y-63067857D01*
X65689285Y-63067857D01*
X65803571Y-63125000D01*
X67175000Y-63067857D02*
X67460714Y-63867857D01*
X67746428Y-63067857D01*
X68832142Y-63867857D02*
X68146428Y-63867857D01*
X68489285Y-63867857D02*
X68489285Y-62667857D01*
X68375000Y-62839285D01*
X68260714Y-62953571D01*
X68146428Y-63010714D01*
X69346428Y-63753571D02*
X69403571Y-63810714D01*
X69346428Y-63867857D01*
X69289285Y-63810714D01*
X69346428Y-63753571D01*
X69346428Y-63867857D01*
X70146428Y-62667857D02*
X70260714Y-62667857D01*
X70375000Y-62725000D01*
X70432142Y-62782142D01*
X70489285Y-62896428D01*
X70546428Y-63125000D01*
X70546428Y-63410714D01*
X70489285Y-63639285D01*
X70432142Y-63753571D01*
X70375000Y-63810714D01*
X70260714Y-63867857D01*
X70146428Y-63867857D01*
X70032142Y-63810714D01*
X69975000Y-63753571D01*
X69917857Y-63639285D01*
X69860714Y-63410714D01*
X69860714Y-63125000D01*
X69917857Y-62896428D01*
X69975000Y-62782142D01*
X70032142Y-62725000D01*
X70146428Y-62667857D01*
D11*
X72403571Y-68027380D02*
X72403571Y-67027380D01*
X72736904Y-67741666D01*
X73070238Y-67027380D01*
X73070238Y-68027380D01*
X73546428Y-68027380D02*
X73546428Y-67027380D01*
X73975000Y-67979761D02*
X74117857Y-68027380D01*
X74355952Y-68027380D01*
X74451190Y-67979761D01*
X74498809Y-67932142D01*
X74546428Y-67836904D01*
X74546428Y-67741666D01*
X74498809Y-67646428D01*
X74451190Y-67598809D01*
X74355952Y-67551190D01*
X74165476Y-67503571D01*
X74070238Y-67455952D01*
X74022619Y-67408333D01*
X73975000Y-67313095D01*
X73975000Y-67217857D01*
X74022619Y-67122619D01*
X74070238Y-67075000D01*
X74165476Y-67027380D01*
X74403571Y-67027380D01*
X74546428Y-67075000D01*
X75165476Y-67027380D02*
X75355952Y-67027380D01*
X75451190Y-67075000D01*
X75546428Y-67170238D01*
X75594047Y-67360714D01*
X75594047Y-67694047D01*
X75546428Y-67884523D01*
X75451190Y-67979761D01*
X75355952Y-68027380D01*
X75165476Y-68027380D01*
X75070238Y-67979761D01*
X74975000Y-67884523D01*
X74927380Y-67694047D01*
X74927380Y-67360714D01*
X74975000Y-67170238D01*
X75070238Y-67075000D01*
X75165476Y-67027380D01*
X73277380Y-80802380D02*
X72944047Y-80326190D01*
X72705952Y-80802380D02*
X72705952Y-79802380D01*
X73086904Y-79802380D01*
X73182142Y-79850000D01*
X73229761Y-79897619D01*
X73277380Y-79992857D01*
X73277380Y-80135714D01*
X73229761Y-80230952D01*
X73182142Y-80278571D01*
X73086904Y-80326190D01*
X72705952Y-80326190D01*
X73658333Y-80754761D02*
X73801190Y-80802380D01*
X74039285Y-80802380D01*
X74134523Y-80754761D01*
X74182142Y-80707142D01*
X74229761Y-80611904D01*
X74229761Y-80516666D01*
X74182142Y-80421428D01*
X74134523Y-80373809D01*
X74039285Y-80326190D01*
X73848809Y-80278571D01*
X73753571Y-80230952D01*
X73705952Y-80183333D01*
X73658333Y-80088095D01*
X73658333Y-79992857D01*
X73705952Y-79897619D01*
X73753571Y-79850000D01*
X73848809Y-79802380D01*
X74086904Y-79802380D01*
X74229761Y-79850000D01*
X74515476Y-79802380D02*
X75086904Y-79802380D01*
X74801190Y-80802380D02*
X74801190Y-79802380D01*
X73758333Y-72932142D02*
X73710714Y-72979761D01*
X73567857Y-73027380D01*
X73472619Y-73027380D01*
X73329761Y-72979761D01*
X73234523Y-72884523D01*
X73186904Y-72789285D01*
X73139285Y-72598809D01*
X73139285Y-72455952D01*
X73186904Y-72265476D01*
X73234523Y-72170238D01*
X73329761Y-72075000D01*
X73472619Y-72027380D01*
X73567857Y-72027380D01*
X73710714Y-72075000D01*
X73758333Y-72122619D01*
X74139285Y-72979761D02*
X74282142Y-73027380D01*
X74520238Y-73027380D01*
X74615476Y-72979761D01*
X74663095Y-72932142D01*
X74710714Y-72836904D01*
X74710714Y-72741666D01*
X74663095Y-72646428D01*
X74615476Y-72598809D01*
X74520238Y-72551190D01*
X74329761Y-72503571D01*
X74234523Y-72455952D01*
X74186904Y-72408333D01*
X74139285Y-72313095D01*
X74139285Y-72217857D01*
X74186904Y-72122619D01*
X74234523Y-72075000D01*
X74329761Y-72027380D01*
X74567857Y-72027380D01*
X74710714Y-72075000D01*
X72301190Y-78202380D02*
X72301190Y-77202380D01*
X72682142Y-77202380D01*
X72777380Y-77250000D01*
X72825000Y-77297619D01*
X72872619Y-77392857D01*
X72872619Y-77535714D01*
X72825000Y-77630952D01*
X72777380Y-77678571D01*
X72682142Y-77726190D01*
X72301190Y-77726190D01*
X73301190Y-78202380D02*
X73301190Y-77202380D01*
X74348809Y-78202380D02*
X74015476Y-77726190D01*
X73777380Y-78202380D02*
X73777380Y-77202380D01*
X74158333Y-77202380D01*
X74253571Y-77250000D01*
X74301190Y-77297619D01*
X74348809Y-77392857D01*
X74348809Y-77535714D01*
X74301190Y-77630952D01*
X74253571Y-77678571D01*
X74158333Y-77726190D01*
X73777380Y-77726190D01*
X75444047Y-78297619D02*
X75348809Y-78250000D01*
X75253571Y-78154761D01*
X75110714Y-78011904D01*
X75015476Y-77964285D01*
X74920238Y-77964285D01*
X74967857Y-78202380D02*
X74872619Y-78154761D01*
X74777380Y-78059523D01*
X74729761Y-77869047D01*
X74729761Y-77535714D01*
X74777380Y-77345238D01*
X74872619Y-77250000D01*
X74967857Y-77202380D01*
X75158333Y-77202380D01*
X75253571Y-77250000D01*
X75348809Y-77345238D01*
X75396428Y-77535714D01*
X75396428Y-77869047D01*
X75348809Y-78059523D01*
X75253571Y-78154761D01*
X75158333Y-78202380D01*
X74967857Y-78202380D01*
X72334523Y-75604761D02*
X72477380Y-75652380D01*
X72715476Y-75652380D01*
X72810714Y-75604761D01*
X72858333Y-75557142D01*
X72905952Y-75461904D01*
X72905952Y-75366666D01*
X72858333Y-75271428D01*
X72810714Y-75223809D01*
X72715476Y-75176190D01*
X72525000Y-75128571D01*
X72429761Y-75080952D01*
X72382142Y-75033333D01*
X72334523Y-74938095D01*
X72334523Y-74842857D01*
X72382142Y-74747619D01*
X72429761Y-74700000D01*
X72525000Y-74652380D01*
X72763095Y-74652380D01*
X72905952Y-74700000D01*
X73905952Y-75557142D02*
X73858333Y-75604761D01*
X73715476Y-75652380D01*
X73620238Y-75652380D01*
X73477380Y-75604761D01*
X73382142Y-75509523D01*
X73334523Y-75414285D01*
X73286904Y-75223809D01*
X73286904Y-75080952D01*
X73334523Y-74890476D01*
X73382142Y-74795238D01*
X73477380Y-74700000D01*
X73620238Y-74652380D01*
X73715476Y-74652380D01*
X73858333Y-74700000D01*
X73905952Y-74747619D01*
X74810714Y-75652380D02*
X74334523Y-75652380D01*
X74334523Y-74652380D01*
X75144047Y-75652380D02*
X75144047Y-74652380D01*
X75715476Y-75652380D02*
X75286904Y-75080952D01*
X75715476Y-74652380D02*
X75144047Y-75223809D01*
X73163095Y-62000000D02*
X73067857Y-61952380D01*
X72925000Y-61952380D01*
X72782142Y-62000000D01*
X72686904Y-62095238D01*
X72639285Y-62190476D01*
X72591666Y-62380952D01*
X72591666Y-62523809D01*
X72639285Y-62714285D01*
X72686904Y-62809523D01*
X72782142Y-62904761D01*
X72925000Y-62952380D01*
X73020238Y-62952380D01*
X73163095Y-62904761D01*
X73210714Y-62857142D01*
X73210714Y-62523809D01*
X73020238Y-62523809D01*
X73639285Y-62952380D02*
X73639285Y-61952380D01*
X74210714Y-62952380D01*
X74210714Y-61952380D01*
X74686904Y-62952380D02*
X74686904Y-61952380D01*
X74925000Y-61952380D01*
X75067857Y-62000000D01*
X75163095Y-62095238D01*
X75210714Y-62190476D01*
X75258333Y-62380952D01*
X75258333Y-62523809D01*
X75210714Y-62714285D01*
X75163095Y-62809523D01*
X75067857Y-62904761D01*
X74925000Y-62952380D01*
X74686904Y-62952380D01*
X72403571Y-70577380D02*
X72403571Y-69577380D01*
X72736904Y-70291666D01*
X73070238Y-69577380D01*
X73070238Y-70577380D01*
X73736904Y-69577380D02*
X73927380Y-69577380D01*
X74022619Y-69625000D01*
X74117857Y-69720238D01*
X74165476Y-69910714D01*
X74165476Y-70244047D01*
X74117857Y-70434523D01*
X74022619Y-70529761D01*
X73927380Y-70577380D01*
X73736904Y-70577380D01*
X73641666Y-70529761D01*
X73546428Y-70434523D01*
X73498809Y-70244047D01*
X73498809Y-69910714D01*
X73546428Y-69720238D01*
X73641666Y-69625000D01*
X73736904Y-69577380D01*
X74546428Y-70529761D02*
X74689285Y-70577380D01*
X74927380Y-70577380D01*
X75022619Y-70529761D01*
X75070238Y-70482142D01*
X75117857Y-70386904D01*
X75117857Y-70291666D01*
X75070238Y-70196428D01*
X75022619Y-70148809D01*
X74927380Y-70101190D01*
X74736904Y-70053571D01*
X74641666Y-70005952D01*
X74594047Y-69958333D01*
X74546428Y-69863095D01*
X74546428Y-69767857D01*
X74594047Y-69672619D01*
X74641666Y-69625000D01*
X74736904Y-69577380D01*
X74975000Y-69577380D01*
X75117857Y-69625000D01*
X75546428Y-70577380D02*
X75546428Y-69577380D01*
X72323809Y-64577380D02*
X72942857Y-64577380D01*
X72609523Y-64958333D01*
X72752380Y-64958333D01*
X72847619Y-65005952D01*
X72895238Y-65053571D01*
X72942857Y-65148809D01*
X72942857Y-65386904D01*
X72895238Y-65482142D01*
X72847619Y-65529761D01*
X72752380Y-65577380D01*
X72466666Y-65577380D01*
X72371428Y-65529761D01*
X72323809Y-65482142D01*
X73371428Y-65482142D02*
X73419047Y-65529761D01*
X73371428Y-65577380D01*
X73323809Y-65529761D01*
X73371428Y-65482142D01*
X73371428Y-65577380D01*
X73752380Y-64577380D02*
X74371428Y-64577380D01*
X74038095Y-64958333D01*
X74180952Y-64958333D01*
X74276190Y-65005952D01*
X74323809Y-65053571D01*
X74371428Y-65148809D01*
X74371428Y-65386904D01*
X74323809Y-65482142D01*
X74276190Y-65529761D01*
X74180952Y-65577380D01*
X73895238Y-65577380D01*
X73800000Y-65529761D01*
X73752380Y-65482142D01*
X74657142Y-64577380D02*
X74990476Y-65577380D01*
X75323809Y-64577380D01*
%TO.C,R1*%
X65005049Y-77539438D02*
X64671716Y-77063248D01*
X64433620Y-77539438D02*
X64433620Y-76539438D01*
X64814573Y-76539438D01*
X64909811Y-76587058D01*
X64957430Y-76634677D01*
X65005049Y-76729915D01*
X65005049Y-76872772D01*
X64957430Y-76968010D01*
X64909811Y-77015629D01*
X64814573Y-77063248D01*
X64433620Y-77063248D01*
X65957430Y-77539438D02*
X65386001Y-77539438D01*
X65671716Y-77539438D02*
X65671716Y-76539438D01*
X65576477Y-76682296D01*
X65481239Y-76777534D01*
X65386001Y-76825153D01*
%TO.C,C2*%
X58507142Y-72916666D02*
X58554761Y-72964285D01*
X58602380Y-73107142D01*
X58602380Y-73202380D01*
X58554761Y-73345238D01*
X58459523Y-73440476D01*
X58364285Y-73488095D01*
X58173809Y-73535714D01*
X58030952Y-73535714D01*
X57840476Y-73488095D01*
X57745238Y-73440476D01*
X57650000Y-73345238D01*
X57602380Y-73202380D01*
X57602380Y-73107142D01*
X57650000Y-72964285D01*
X57697619Y-72916666D01*
X57697619Y-72535714D02*
X57650000Y-72488095D01*
X57602380Y-72392857D01*
X57602380Y-72154761D01*
X57650000Y-72059523D01*
X57697619Y-72011904D01*
X57792857Y-71964285D01*
X57888095Y-71964285D01*
X58030952Y-72011904D01*
X58602380Y-72583333D01*
X58602380Y-71964285D01*
%TO.C,C1*%
X58597142Y-67766666D02*
X58644761Y-67814285D01*
X58692380Y-67957142D01*
X58692380Y-68052380D01*
X58644761Y-68195238D01*
X58549523Y-68290476D01*
X58454285Y-68338095D01*
X58263809Y-68385714D01*
X58120952Y-68385714D01*
X57930476Y-68338095D01*
X57835238Y-68290476D01*
X57740000Y-68195238D01*
X57692380Y-68052380D01*
X57692380Y-67957142D01*
X57740000Y-67814285D01*
X57787619Y-67766666D01*
X58692380Y-66814285D02*
X58692380Y-67385714D01*
X58692380Y-67100000D02*
X57692380Y-67100000D01*
X57835238Y-67195238D01*
X57930476Y-67290476D01*
X57978095Y-67385714D01*
%TO.C,C3*%
X58597142Y-77926666D02*
X58644761Y-77974285D01*
X58692380Y-78117142D01*
X58692380Y-78212380D01*
X58644761Y-78355238D01*
X58549523Y-78450476D01*
X58454285Y-78498095D01*
X58263809Y-78545714D01*
X58120952Y-78545714D01*
X57930476Y-78498095D01*
X57835238Y-78450476D01*
X57740000Y-78355238D01*
X57692380Y-78212380D01*
X57692380Y-78117142D01*
X57740000Y-77974285D01*
X57787619Y-77926666D01*
X57692380Y-77593333D02*
X57692380Y-76974285D01*
X58073333Y-77307619D01*
X58073333Y-77164761D01*
X58120952Y-77069523D01*
X58168571Y-77021904D01*
X58263809Y-76974285D01*
X58501904Y-76974285D01*
X58597142Y-77021904D01*
X58644761Y-77069523D01*
X58692380Y-77164761D01*
X58692380Y-77450476D01*
X58644761Y-77545714D01*
X58597142Y-77593333D01*
%TO.C,J1*%
X77341666Y-82352380D02*
X77341666Y-83066666D01*
X77294047Y-83209523D01*
X77198809Y-83304761D01*
X77055952Y-83352380D01*
X76960714Y-83352380D01*
X78341666Y-83352380D02*
X77770238Y-83352380D01*
X78055952Y-83352380D02*
X78055952Y-82352380D01*
X77960714Y-82495238D01*
X77865476Y-82590476D01*
X77770238Y-82638095D01*
D12*
%TO.C,IC1*%
X64110238Y-74924523D02*
X64110238Y-73654523D01*
X65440714Y-74803571D02*
X65380238Y-74864047D01*
X65198809Y-74924523D01*
X65077857Y-74924523D01*
X64896428Y-74864047D01*
X64775476Y-74743095D01*
X64715000Y-74622142D01*
X64654523Y-74380238D01*
X64654523Y-74198809D01*
X64715000Y-73956904D01*
X64775476Y-73835952D01*
X64896428Y-73715000D01*
X65077857Y-73654523D01*
X65198809Y-73654523D01*
X65380238Y-73715000D01*
X65440714Y-73775476D01*
X66650238Y-74924523D02*
X65924523Y-74924523D01*
X66287380Y-74924523D02*
X66287380Y-73654523D01*
X66166428Y-73835952D01*
X66045476Y-73956904D01*
X65924523Y-74017380D01*
D13*
%TO.C,R1*%
X64944652Y-78002058D02*
X65398780Y-78002058D01*
X64944652Y-79472058D02*
X65398780Y-79472058D01*
%TO.C,C2*%
X60655000Y-72418748D02*
X60655000Y-72941252D01*
X59185000Y-72418748D02*
X59185000Y-72941252D01*
%TO.C,C1*%
X60655000Y-67861252D02*
X60655000Y-67338748D01*
X59185000Y-67861252D02*
X59185000Y-67338748D01*
%TO.C,C3*%
X59185000Y-78021252D02*
X59185000Y-77498748D01*
X60655000Y-78021252D02*
X60655000Y-77498748D01*
%TO.C,J1*%
X76370000Y-61190000D02*
X77700000Y-61190000D01*
X76370000Y-63790000D02*
X79030000Y-63790000D01*
X76370000Y-62520000D02*
X76370000Y-61190000D01*
X76370000Y-81630000D02*
X79030000Y-81630000D01*
X76370000Y-63790000D02*
X76370000Y-81630000D01*
X79030000Y-63790000D02*
X79030000Y-81630000D01*
D14*
%TO.C,IC1*%
X70040000Y-67640000D02*
X70040000Y-67940000D01*
X70040000Y-72640000D02*
X70040000Y-72340000D01*
X65340000Y-67640000D02*
X65040000Y-67640000D01*
X65040000Y-72340000D02*
X65040000Y-72640000D01*
X65040000Y-72640000D02*
X65340000Y-72640000D01*
D10*
X64340000Y-68240000D02*
X64340000Y-68240000D01*
X64340000Y-68440000D02*
X64340000Y-68440000D01*
D14*
X69740000Y-67640000D02*
X70040000Y-67640000D01*
X65040000Y-67640000D02*
X65040000Y-67940000D01*
X69740000Y-72640000D02*
X70040000Y-72640000D01*
D10*
X64340000Y-68240000D02*
G75*
G03*
X64340000Y-68440000I0J-100000D01*
G01*
X64340000Y-68440000D02*
G75*
G03*
X64340000Y-68240000I0J100000D01*
G01*
%TD*%
%LPC*%
D15*
%TO.C,R1*%
X64259216Y-78737058D03*
X66084216Y-78737058D03*
%TD*%
D16*
%TO.C,C2*%
X59920000Y-71730000D03*
X59920000Y-73630000D03*
%TD*%
D17*
%TO.C,C1*%
X59920000Y-68550000D03*
X59920000Y-66650000D03*
%TD*%
%TO.C,C3*%
X59920000Y-78710000D03*
X59920000Y-76810000D03*
%TD*%
D18*
%TO.C,J1*%
X77700000Y-62520000D03*
D19*
X77700000Y-65060000D03*
X77700000Y-67600000D03*
X77700000Y-70140000D03*
X77700000Y-72680000D03*
X77700000Y-75220000D03*
X77700000Y-77760000D03*
X77700000Y-80300000D03*
%TD*%
D20*
%TO.C,IC1*%
X65140000Y-68390000D03*
X65140000Y-68890000D03*
X65140000Y-69390000D03*
X65140000Y-69890000D03*
X65140000Y-70390000D03*
X65140000Y-70890000D03*
X65140000Y-71390000D03*
X65140000Y-71890000D03*
D21*
X65790000Y-72540000D03*
X66290000Y-72540000D03*
X66790000Y-72540000D03*
X67290000Y-72540000D03*
X67790000Y-72540000D03*
X68290000Y-72540000D03*
X68790000Y-72540000D03*
X69290000Y-72540000D03*
D20*
X69940000Y-71890000D03*
X69940000Y-71390000D03*
X69940000Y-70890000D03*
X69940000Y-70390000D03*
X69940000Y-69890000D03*
X69940000Y-69390000D03*
X69940000Y-68890000D03*
X69940000Y-68390000D03*
D21*
X69290000Y-67740000D03*
X68790000Y-67740000D03*
X68290000Y-67740000D03*
X67790000Y-67740000D03*
X67290000Y-67740000D03*
X66790000Y-67740000D03*
X66290000Y-67740000D03*
X65790000Y-67740000D03*
D22*
X67540000Y-70140000D03*
%TD*%
M02*
